<svg xmlns="http://www.w3.org/2000/svg" width="660" height="450" fill="none" viewBox="0 0 660 450"><foreignObject width="904.062" height="541.661" x="-122.231" y="-86.8405"><div xmlns="http://www.w3.org/1999/xhtml" style="backdrop-filter:blur(92.31px);clip-path:url(#a);height:100%;width:100%"/></foreignObject><g data-figma-bg-blur-radius="184.615" filter="url(#b)"><rect width="525.6" height="163.2" x="67" y="102.39" fill="url(#c)" rx="55.3846" shape-rendering="crispEdges"/><rect width="530.215" height="167.815" x="64.6923" y="100.082" stroke="url(#d)" stroke-width="4.6154" rx="57.6923" shape-rendering="crispEdges"/><g fill-rule="evenodd" clip-rule="evenodd" filter="url(#e)" opacity=".9"><path fill="url(#f)" d="M124 155.39c7.936 0 14.4 6.458 14.4 14.4v8.163c5.414.787 9.6 5.412 9.6 11.037v12.8c0 6.176-5.024 11.2-11.2 11.2h-25.6c-6.176 0-11.2-5.024-11.2-11.2v-12.8c0-5.632 4.186-10.25 9.6-11.037v-8.163c0-7.942 6.464-14.4 14.4-14.4m0 9.6a4.806 4.806 0 0 0-4.8 4.8v8h9.6v-8c0-2.649-2.157-4.8-4.8-4.8"/><path fill="url(#g)" fill-opacity=".2" d="M124 155.39c7.936 0 14.4 6.458 14.4 14.4v8.163c5.414.787 9.6 5.412 9.6 11.037v12.8c0 6.176-5.024 11.2-11.2 11.2h-25.6c-6.176 0-11.2-5.024-11.2-11.2v-12.8c0-5.632 4.186-10.25 9.6-11.037v-8.163c0-7.942 6.464-14.4 14.4-14.4m0 9.6a4.806 4.806 0 0 0-4.8 4.8v8h9.6v-8c0-2.649-2.157-4.8-4.8-4.8" style="mix-blend-mode:screen"/></g><path fill="#e4e2de" d="M186.854 165.39c2.332.001 4.224 1.854 4.224 4.141v5.857c0 .766.842 1.249 1.523.872l5.204-2.879c2.032-1.123 4.609-.42 5.756 1.572 1.146 1.991.427 4.517-1.604 5.641l-4.934 2.73a.99.99 0 0 0 0 1.743l4.934 2.73c2.032 1.125 2.75 3.651 1.604 5.643-1.147 1.992-3.724 2.695-5.756 1.571l-5.204-2.88c-.681-.376-1.523.106-1.523.872v5.858c0 2.287-1.892 4.141-4.224 4.141s-4.226-1.854-4.226-4.141v-5.858c0-.766-.843-1.248-1.523-.872l-5.202 2.88c-2.032 1.124-4.609.42-5.756-1.571-1.147-1.992-.429-4.518 1.602-5.643l4.934-2.73a.992.992 0 0 0 0-1.743l-4.934-2.73c-2.031-1.124-2.749-3.65-1.602-5.641s3.724-2.696 5.756-1.572l5.202 2.879c.68.377 1.523-.106 1.523-.872v-5.857c0-2.287 1.893-4.141 4.226-4.141m44.715 0c2.332 0 4.223 1.854 4.223 4.141v5.857c0 .766.842 1.248 1.523.872l5.205-2.879c2.031-1.123 4.608-.42 5.755 1.572 1.146 1.991.428 4.517-1.603 5.641l-4.934 2.73a.991.991 0 0 0-.001 1.743l4.935 2.73c2.032 1.125 2.749 3.651 1.603 5.643s-3.724 2.695-5.755 1.571l-5.205-2.88c-.681-.376-1.523.107-1.523.872v5.858c0 2.287-1.891 4.141-4.223 4.141-2.333 0-4.226-1.854-4.226-4.141v-5.858c0-.766-.842-1.248-1.522-.872l-5.204 2.88c-2.031 1.124-4.609.421-5.755-1.571-1.147-1.992-.43-4.518 1.602-5.643l4.934-2.73a.992.992 0 0 0-.001-1.743l-4.933-2.73c-2.032-1.124-2.749-3.65-1.602-5.641 1.146-1.992 3.724-2.696 5.755-1.572l5.204 2.879c.68.377 1.522-.106 1.522-.872v-5.857c0-2.287 1.893-4.141 4.226-4.141m45.224 0c2.333 0 4.225 1.854 4.225 4.141v5.857c0 .766.842 1.249 1.522.872l5.204-2.879c2.032-1.123 4.609-.42 5.756 1.572 1.146 1.991.428 4.517-1.603 5.641l-4.936 2.73a.991.991 0 0 0 0 1.743l4.936 2.73c2.031 1.125 2.749 3.651 1.603 5.643s-3.724 2.695-5.756 1.571l-5.204-2.88c-.68-.376-1.522.106-1.522.872v5.858c0 2.287-1.892 4.141-4.225 4.141s-4.225-1.854-4.225-4.141v-5.858c0-.766-.843-1.248-1.524-.872l-5.202 2.88c-2.032 1.124-4.609.421-5.756-1.571-1.146-1.992-.429-4.518 1.603-5.643l4.932-2.73a.991.991 0 0 0 0-1.743l-4.932-2.73c-2.032-1.124-2.749-3.65-1.603-5.641s3.724-2.696 5.756-1.572l5.202 2.879c.681.377 1.524-.106 1.524-.872v-5.857c0-2.287 1.892-4.141 4.225-4.141m44.714 0c2.333 0 4.225 1.854 4.225 4.141v5.857c0 .766.843 1.249 1.523.872l5.203-2.879c2.032-1.124 4.609-.42 5.756 1.572s.428 4.517-1.603 5.641l-4.934 2.73a.991.991 0 0 0 0 1.743l4.934 2.73c2.031 1.125 2.75 3.651 1.603 5.643s-3.724 2.695-5.756 1.571l-5.203-2.88c-.68-.376-1.523.106-1.523.872v5.858c0 2.287-1.892 4.141-4.225 4.141s-4.224-1.854-4.225-4.141v-5.858c0-.766-.841-1.248-1.522-.872l-5.203 2.88c-2.032 1.124-4.609.421-5.756-1.571s-.43-4.518 1.602-5.643l4.934-2.73a.991.991 0 0 0 0-1.743l-4.934-2.73c-2.032-1.124-2.748-3.65-1.602-5.641s3.724-2.696 5.756-1.572l5.203 2.879c.681.377 1.522-.106 1.522-.872v-5.857c.001-2.287 1.892-4.14 4.225-4.141m44.716 0c2.333 0 4.224 1.854 4.224 4.141v5.857c0 .766.842 1.249 1.523.872l5.204-2.879c2.032-1.124 4.609-.42 5.756 1.572 1.146 1.991.428 4.517-1.604 5.641l-4.935 2.73a.991.991 0 0 0 0 1.743l4.935 2.73c2.032 1.124 2.75 3.651 1.604 5.643-1.147 1.992-3.724 2.695-5.756 1.571l-5.204-2.88c-.681-.376-1.523.106-1.523.872v5.858c0 2.287-1.891 4.141-4.224 4.141s-4.226-1.854-4.226-4.141v-5.858c0-.766-.842-1.248-1.522-.872l-5.203 2.88c-2.032 1.124-4.609.421-5.756-1.571s-.429-4.518 1.602-5.643l4.934-2.73a.992.992 0 0 0 0-1.743l-4.934-2.73c-2.031-1.124-2.749-3.65-1.602-5.641s3.724-2.696 5.756-1.572l5.203 2.879c.68.377 1.522-.106 1.522-.872v-5.857c0-2.287 1.893-4.141 4.226-4.141m44.716 0c2.332.001 4.223 1.854 4.223 4.141v5.857c0 .766.842 1.248 1.523.872l5.204-2.879c2.032-1.124 4.609-.42 5.756 1.572 1.146 1.991.428 4.517-1.603 5.641l-4.935 2.73a.991.991 0 0 0 0 1.743l4.935 2.73c2.032 1.125 2.749 3.651 1.603 5.643s-3.724 2.695-5.756 1.571l-5.204-2.88c-.681-.376-1.523.106-1.523.872v5.858c0 2.287-1.891 4.141-4.223 4.141-2.333 0-4.226-1.854-4.226-4.141v-5.858c0-.766-.843-1.248-1.523-.872l-5.202 2.88c-2.032 1.124-4.609.421-5.756-1.571s-.43-4.518 1.602-5.643l4.933-2.73a.991.991 0 0 0 0-1.743l-4.933-2.73c-2.032-1.124-2.749-3.65-1.602-5.641s3.724-2.696 5.756-1.572l5.202 2.879c.68.377 1.523-.106 1.523-.872v-5.857c0-2.287 1.893-4.141 4.226-4.141m44.051 0c2.352.001 4.26 1.854 4.26 4.141v5.857c0 .766.848 1.248 1.534.872l5.248-2.879c2.049-1.123 4.648-.42 5.804 1.572s.431 4.517-1.617 5.641l-4.976 2.73a.987.987 0 0 0 0 1.743l4.976 2.73c2.048 1.125 2.773 3.651 1.617 5.643s-3.755 2.695-5.804 1.571l-5.248-2.88c-.686-.376-1.534.106-1.534.872v5.858c0 2.287-1.907 4.141-4.26 4.141s-4.26-1.854-4.26-4.141v-5.858c0-.766-.85-1.248-1.536-.872l-5.246 2.88c-2.048 1.124-4.647.42-5.803-1.571-1.156-1.992-.433-4.518 1.616-5.643l4.974-2.73a.988.988 0 0 0 0-1.743l-4.974-2.73c-2.049-1.124-2.772-3.65-1.616-5.641s3.755-2.696 5.803-1.572l5.246 2.879c.686.377 1.536-.106 1.536-.872v-5.857c0-2.287 1.908-4.141 4.26-4.141m44.007 0c2.352.001 4.26 1.854 4.26 4.141v5.857c0 .766.849 1.249 1.535.872l5.247-2.879c2.049-1.124 4.648-.42 5.804 1.572s.432 4.517-1.616 5.641l-4.977 2.73a.988.988 0 0 0 0 1.743l4.977 2.73c2.048 1.125 2.772 3.651 1.616 5.643s-3.755 2.695-5.804 1.571l-5.247-2.88c-.686-.376-1.535.106-1.535.872v5.858c0 2.287-1.908 4.141-4.26 4.141s-4.259-1.854-4.259-4.141v-5.858c0-.766-.85-1.248-1.537-.872l-5.246 2.88c-2.048 1.124-4.646.42-5.802-1.571-1.157-1.992-.434-4.518 1.615-5.643l4.973-2.73a.987.987 0 0 0 0-1.743l-4.973-2.73c-2.049-1.124-2.772-3.65-1.615-5.641s3.754-2.696 5.802-1.572l5.246 2.879c.687.376 1.537-.106 1.537-.872v-5.857c0-2.287 1.907-4.141 4.259-4.141m44.008 0c2.352.001 4.259 1.854 4.259 4.141v5.857c0 .766.849 1.249 1.535.872l5.248-2.879c2.049-1.123 4.647-.42 5.803 1.572s.432 4.517-1.616 5.641l-4.977 2.73a.988.988 0 0 0 0 1.743l4.977 2.73c2.048 1.125 2.772 3.651 1.616 5.643s-3.754 2.695-5.803 1.571l-5.248-2.88c-.686-.376-1.535.106-1.535.872v5.858c0 2.287-1.907 4.141-4.259 4.141s-4.261-1.854-4.261-4.141v-5.858c0-.766-.85-1.248-1.536-.872l-5.245 2.88c-2.049 1.124-4.647.421-5.804-1.571-1.156-1.992-.433-4.518 1.616-5.643l4.974-2.73a.987.987 0 0 0 0-1.743l-4.974-2.73c-2.049-1.124-2.772-3.65-1.616-5.641 1.157-1.992 3.755-2.696 5.804-1.572l5.245 2.879c.686.377 1.536-.106 1.536-.872v-5.857c.001-2.287 1.909-4.141 4.261-4.141"/></g><defs><radialGradient id="c" cx="0" cy="0" r="1" gradientTransform="matrix(248.465 118.627 -416.365 96.0136 208.255 119.924)" gradientUnits="userSpaceOnUse"><stop stop-color="#fff" stop-opacity=".5"/><stop offset="1" stop-color="#f7f6f3" stop-opacity=".9"/></radialGradient><radialGradient id="f" cx="0" cy="0" r="1" gradientTransform="matrix(39.5558 45.9849 -38.3212 37.5043 111.556 160.414)" gradientUnits="userSpaceOnUse"><stop stop-color="#444"/><stop offset="1"/></radialGradient><radialGradient id="g" cx="0" cy="0" r="1" gradientTransform="matrix(18.1251 23.9999 -22.4437 19.2121 105.875 160.189)" gradientUnits="userSpaceOnUse"><stop stop-color="#fff"/><stop offset="1"/></radialGradient><filter id="b" width="904.062" height="541.661" x="-122.231" y="-86.8405" color-interpolation-filters="sRGB" filterUnits="userSpaceOnUse"><feFlood flood-opacity="0" result="BackgroundImageFix"/><feColorMatrix in="SourceAlpha" result="hardAlpha" values="0 0 0 0 0 0 0 0 0 0 0 0 0 0 0 0 0 0 127 0"/><feOffset dy="40.6869"/><feGaussianBlur stdDeviation="69.2308"/><feComposite in2="hardAlpha" operator="out"/><feColorMatrix values="0 0 0 0 0.217398 0 0 0 0 0.208887 0 0 0 0 0.144451 0 0 0 0.05 0"/><feBlend in2="BackgroundImageFix" result="effect1_dropShadow_8059_17412"/><feBlend in="SourceGraphic" in2="effect1_dropShadow_8059_17412" result="shape"/></filter><filter id="e" width="82.56" height="92.1601" x="82.72" y="143.87" color-interpolation-filters="sRGB" filterUnits="userSpaceOnUse"><feFlood flood-opacity="0" result="BackgroundImageFix"/><feColorMatrix in="SourceAlpha" result="hardAlpha" values="0 0 0 0 0 0 0 0 0 0 0 0 0 0 0 0 0 0 127 0"/><feOffset dy="5.76"/><feGaussianBlur stdDeviation="8.64"/><feComposite in2="hardAlpha" operator="out"/><feColorMatrix values="0 0 0 0 0 0 0 0 0 0 0 0 0 0 0 0 0 0 0.12 0"/><feBlend in2="BackgroundImageFix" result="effect1_dropShadow_8059_17412"/><feColorMatrix in="SourceAlpha" result="hardAlpha" values="0 0 0 0 0 0 0 0 0 0 0 0 0 0 0 0 0 0 127 0"/><feOffset dy="2.88"/><feGaussianBlur stdDeviation="2.88"/><feComposite in2="hardAlpha" operator="out"/><feColorMatrix values="0 0 0 0 0 0 0 0 0 0 0 0 0 0 0 0 0 0 0.1 0"/><feBlend in2="effect1_dropShadow_8059_17412" result="effect2_dropShadow_8059_17412"/><feBlend in="SourceGraphic" in2="effect2_dropShadow_8059_17412" result="shape"/><feColorMatrix in="SourceAlpha" result="hardAlpha" values="0 0 0 0 0 0 0 0 0 0 0 0 0 0 0 0 0 0 127 0"/><feOffset dx=".72" dy=".72"/><feGaussianBlur stdDeviation=".72"/><feComposite in2="hardAlpha" k2="-1" k3="1" operator="arithmetic"/><feColorMatrix values="0 0 0 0 1 0 0 0 0 1 0 0 0 0 1 0 0 0 0.5 0"/><feBlend in2="shape" result="effect3_innerShadow_8059_17412"/></filter><linearGradient id="d" x1="329.8" x2="329.8" y1="102.39" y2="265.59" gradientUnits="userSpaceOnUse"><stop stop-color="#fff"/><stop offset="1" stop-color="#f5f5f5"/></linearGradient><clipPath id="a" transform="translate(122.231 86.84)"><rect width="525.6" height="163.2" x="67" y="102.39" rx="55.3846"/></clipPath></defs></svg>