<svg xmlns="http://www.w3.org/2000/svg" viewBox="0 0 256 256" fill="none"><title>Сказка о запретной любви Эоса</title><desc>Две встречные нити, разлучённые разрывом, и свет между ними: любовь Эоса и Еизы продолжается в их ребёнке.</desc><defs><linearGradient id="cord" x1="20" y1="20" x2="236" y2="236" gradientUnits="userSpaceOnUse"><stop stop-color="#eee8d7"/><stop offset=".5" stop-color="#d3cbb6"/><stop offset="1" stop-color="#eee5cf"/></linearGradient></defs><g transform="translate(128 128)" stroke-linecap="butt" stroke-linejoin="miter"><g class="knot-thread"><g stroke="#121118" stroke-width="12.5"><g transform="rotate(0) translate(-38 -38)"><path d="M-26 0 L0 -26 L26 0 L0 26 L-13 13 L0 0"/></g><g transform="rotate(90) translate(-38 -38)"><path d="M-13 -13 L0 -26 L26 0 L0 26 L-26 0 L-13 -13 L0 0"/></g><g transform="rotate(180) translate(-38 -38)"><path d="M-26 0 L0 -26 L26 0 L0 26 L-13 13"/></g><g transform="rotate(270) translate(-38 -38)"><path d="M-26 0 L0 -26 L26 0 L0 26 L-13 13 L0 0 L13 13"/></g><g transform="rotate(0)"><path d="M-12 -62 L-28 -78 L0 -106 L28 -78 L12 -62 L0 -74 L12 -86"/></g><g transform="rotate(90)"><path d="M-12 -62 L-28 -78 L0 -106 L28 -78 L0 -50"/></g><g transform="rotate(270)"><path d="M-12 -62 L-28 -78 L0 -106 L28 -78 L12 -62 L0 -74"/></g><path d="M-7 -31 L-31 -7 V17 L-13 35 L-3 25 L-19 9 V-7 L-7 -19 M7 -31 L31 -7 V17 L13 35 L3 25 L19 9 V-7 L7 -19"/><path d="M-20 72 L0 92 L20 72 M-13 89 L0 108 L13 89"/><path d="M-15 48 H-9 M9 48 H15 M0 35 V40 M0 56 V61"/></g><g stroke="url(#cord)" stroke-width="9.5"><g transform="rotate(0) translate(-38 -38)"><path pathLength="1" d="M-26 0 L0 -26 L26 0 L0 26 L-13 13 L0 0"/></g><g transform="rotate(90) translate(-38 -38)"><path pathLength="1" d="M-13 -13 L0 -26 L26 0 L0 26 L-26 0 L-13 -13 L0 0"/></g><g transform="rotate(180) translate(-38 -38)"><path pathLength="1" d="M-26 0 L0 -26 L26 0 L0 26 L-13 13"/></g><g transform="rotate(270) translate(-38 -38)"><path pathLength="1" d="M-26 0 L0 -26 L26 0 L0 26 L-13 13 L0 0 L13 13"/></g><g transform="rotate(0)"><path pathLength="1" d="M-12 -62 L-28 -78 L0 -106 L28 -78 L12 -62 L0 -74 L12 -86"/></g><g transform="rotate(90)"><path pathLength="1" d="M-12 -62 L-28 -78 L0 -106 L28 -78 L0 -50"/></g><g transform="rotate(270)"><path pathLength="1" d="M-12 -62 L-28 -78 L0 -106 L28 -78 L12 -62 L0 -74"/></g><path pathLength="1" d="M-7 -31 L-31 -7 V17 L-13 35 L-3 25 L-19 9 V-7 L-7 -19 M7 -31 L31 -7 V17 L13 35 L3 25 L19 9 V-7 L7 -19"/><path pathLength="1" d="M-20 72 L0 92 L20 72 M-13 89 L0 108 L13 89"/><path pathLength="1" d="M-15 48 H-9 M9 48 H15 M0 35 V40 M0 56 V61"/></g></g><g class="knot-crossings" fill="url(#cord)"><path d="M0 41 L7 48 L0 55 L-7 48 Z"/></g></g></svg>
